<svg width="55" height="55" viewBox="0 0 55 55" fill="none" xmlns="http://www.w3.org/2000/svg">
<path d="M27.0461 0.226467C37.0856 0.226467 45.8635 5.72346 50.5303 13.8658H44.0712C40.0988 8.83118 33.9454 5.5882 27.0461 5.5882C15.9982 5.5882 6.85865 13.8955 5.53151 24.592C5.42384 25.4699 5.36173 26.365 5.36173 27.2725C5.36173 28.1808 5.42384 29.0752 5.53151 29.9537H14.8443C16.0714 35.5639 21.068 39.7662 27.0461 39.7662C33.0241 39.7662 38.0207 35.5639 39.2478 29.9537H44.6986C43.4011 38.5308 35.9807 45.1279 27.0461 45.1279C22.538 45.1279 18.4172 43.444 15.2715 40.6793C13.5662 39.1796 12.15 37.361 11.112 35.3155H1.21879C0.426508 32.775 0 30.0724 0 27.2725C0 12.3578 12.1314 0.226467 27.0461 0.226467Z" fill="#2D3954"/>
<path d="M27.045 9.41983C31.9043 9.41983 36.3143 11.3736 39.5387 14.5359C40.9245 15.8948 42.0895 17.4814 42.9784 19.2323H52.8723C53.6639 21.7727 54.0911 24.4753 54.0911 27.2752C54.0911 42.1899 41.9597 54.3213 27.045 54.3213C17.0055 54.3213 8.22755 48.8243 3.56079 40.682H10.0198C13.9951 45.7166 20.1456 48.9596 27.045 48.9596C38.0928 48.9596 47.2324 40.6523 48.5596 29.9558C48.6672 29.0772 48.7293 28.1828 48.7293 27.2752C48.7293 26.367 48.6672 25.4726 48.5596 24.594H39.2468C38.0197 18.9838 33.023 14.7816 27.045 14.7816C21.067 14.7816 16.0703 18.9838 14.8433 24.594H9.39251C10.69 16.0162 18.1104 9.41983 27.045 9.41983Z" fill="#2D3954"/>
</svg>
